<svg width="1066" height="357" viewBox="0 0 1066 357" fill="none" xmlns="http://www.w3.org/2000/svg">
<g filter="url(#filter0_d_1335_12)">
<path d="M365.235 223.361C368.532 210.565 370.282 197.173 370.282 183.376C370.282 93.159 295.474 20.0116 203.19 20.0116C110.906 20.0116 36.1099 93.159 36.1099 183.376C36.1099 273.593 110.919 346.74 203.19 346.74C238.305 346.74 270.884 336.151 297.769 318.067C270.136 337.229 236.593 348.452 200.425 348.452C105.947 348.452 29.3633 271.868 29.3633 177.403C29.3633 82.9376 105.947 6.34082 200.425 6.34082C294.903 6.34082 371.487 82.9249 371.487 177.403C371.487 193.331 369.306 208.739 365.235 223.361Z" fill="white"/>
<path fill-rule="evenodd" clip-rule="evenodd" d="M279.267 0C232.497 108.098 121.216 173.116 4 160.955C121.749 160.955 221.375 100.261 279.267 0Z" fill="white"/>
<path fill-rule="evenodd" clip-rule="evenodd" d="M382 141.742C327.875 264.132 200.983 336.531 68.4604 321.707C198.967 324.852 319.239 256.574 382 141.742Z" fill="white"/>
<path fill-rule="evenodd" clip-rule="evenodd" d="M354.709 46.2117C295.867 183.198 155.304 265.388 7.38599 250.499C155.697 250.499 282.145 171.899 354.709 46.2117Z" fill="white"/>
<path d="M497.034 150.564L529.456 158.712C527.278 166.271 523.848 172.586 519.166 177.655C514.484 182.725 508.658 186.55 501.689 189.13C494.775 191.71 485.955 193 475.23 193C462.217 193 451.574 191.438 443.298 188.315C435.077 185.147 427.972 179.602 421.983 171.68C415.994 163.759 413 153.62 413 141.262C413 124.786 418.254 112.134 428.762 103.308C439.324 94.4359 454.241 90 473.515 90C488.596 90 500.437 92.5348 509.039 97.6045C517.696 102.674 524.12 110.46 528.312 120.961L495.646 127.004C494.503 123.971 493.305 121.753 492.053 120.35C489.984 117.996 487.452 116.186 484.458 114.918C481.463 113.651 478.115 113.017 474.413 113.017C466.028 113.017 459.604 115.824 455.14 121.436C451.764 125.601 450.076 132.142 450.076 141.059C450.076 152.103 452.091 159.685 456.12 163.804C460.149 167.878 465.811 169.915 473.106 169.915C480.184 169.915 485.519 168.263 489.113 164.958C492.76 161.654 495.401 156.856 497.034 150.564Z" fill="url(#paint0_linear_1335_12)"/>
<path d="M629.415 99.3019C665.784 102.47 683.968 116.05 683.968 140.04C683.968 164.528 665.784 178.153 629.415 180.914V191.235H595.769V180.643C559.454 178.063 541.297 164.528 541.297 140.04C541.297 116.005 559.454 102.425 595.769 99.3019V91.6974H629.415V99.3019ZM629.415 160.07C635.241 158.667 639.759 156.177 642.972 152.601C646.184 148.98 647.79 144.657 647.79 139.633C647.79 134.835 646.129 130.535 642.808 126.732C639.542 122.885 635.077 120.192 629.415 118.653V160.07ZM595.769 160.341V119.196C590.27 120.508 585.833 123.111 582.457 127.004C579.081 130.851 577.394 135.242 577.394 140.176C577.394 144.793 579.054 148.935 582.375 152.601C585.751 156.268 590.215 158.848 595.769 160.341Z" fill="url(#paint1_linear_1335_12)"/>
<path d="M701.934 91.6974H801.077V112.949H739.011V128.769H796.585V149.071H739.011V168.693H802.874V191.235H701.934V91.6974Z" fill="url(#paint2_linear_1335_12)"/>
<path d="M822.719 91.6974H884.213C897.606 91.6974 907.624 94.3454 914.266 99.6414C920.963 104.937 924.311 112.474 924.311 122.251C924.311 132.3 920.663 140.153 913.368 145.811C906.127 151.47 895.047 154.299 880.13 154.299H859.877V191.235H822.719V91.6974ZM859.877 134.133H868.941C876.074 134.133 881.083 133.115 883.968 131.078C886.854 128.996 888.296 126.348 888.296 123.134C888.296 120.011 887.044 117.363 884.54 115.19C882.035 113.017 877.326 111.931 870.411 111.931H859.877V134.133Z" fill="url(#paint3_linear_1335_12)"/>
<path d="M1017.41 174.804H975.271L969.472 191.235H931.661L976.659 91.6974H1017L1062 191.235H1023.29L1017.41 174.804ZM1009.65 153.28L996.422 117.498L983.274 153.28H1009.65Z" fill="url(#paint4_linear_1335_12)"/>
<path d="M413 247.388V226.26H419.034L422.658 240.672L426.24 226.26H432.289V247.388H428.543V230.757L424.579 247.388H420.696L416.746 230.757V247.388H413Z" fill="white"/>
<path d="M434.264 226.26H438.773L443.431 237.228L447.409 226.26H451.618L444.875 242.315C444.14 244.054 443.39 245.38 442.628 246.293C441.865 247.196 440.879 247.648 439.672 247.648C438.482 247.648 437.551 247.566 436.879 247.403V244.232C437.451 244.27 437.969 244.29 438.432 244.29C439.367 244.29 440.035 244.112 440.434 243.756C440.843 243.391 441.234 242.613 441.606 241.422L434.264 226.26Z" fill="white"/>
<path d="M454.015 226.26H468.005V247.388H463.973V229.834H457.966V238.856C457.966 241.441 457.884 243.247 457.721 244.275C457.557 245.294 457.158 246.091 456.522 246.668C455.895 247.234 454.91 247.518 453.566 247.518C453.094 247.518 452.236 247.47 450.991 247.374V244.073L451.89 244.088C452.735 244.088 453.303 243.968 453.593 243.728C453.884 243.487 454.029 242.896 454.029 241.955L454.015 238.323V226.26Z" fill="white"/>
<path d="M472.255 226.26H476.287V234.706H481.681C484.224 234.706 486.063 235.335 487.198 236.594C488.343 237.852 488.915 239.361 488.915 241.119C488.915 242.56 488.57 243.785 487.879 244.794C487.189 245.803 486.399 246.49 485.509 246.855C484.628 247.21 483.352 247.388 481.681 247.388H472.255V226.26ZM476.287 243.843H480.21C481.482 243.843 482.363 243.78 482.853 243.656C483.343 243.521 483.779 243.223 484.161 242.762C484.551 242.301 484.746 241.734 484.746 241.061C484.746 240.091 484.415 239.38 483.752 238.928C483.098 238.477 481.977 238.251 480.387 238.251H476.287V243.843Z" fill="white"/>
<path d="M493.887 247.388V229.834H487.961V226.26H503.831V229.834H497.919V247.388H493.887Z" fill="white"/>
<path d="M506.5 226.26H510.274V240.326L518.365 226.26H522.384V247.388H518.61V233.596L510.533 247.388H506.5V226.26Z" fill="white"/>
<path d="M526.443 247.388V226.26H532.477L536.101 240.672L539.683 226.26H545.731V247.388H541.985V230.757L538.021 247.388H534.139L530.189 230.757V247.388H526.443Z" fill="white"/>
<path d="M549.736 247.388V226.26H564.543V229.834H553.768V234.518H563.794V238.078H553.768V243.828H564.925V247.388H549.736Z" fill="white"/>
<path d="M569.951 226.26H583.75V243.843H585.507V252H582.156V247.388H569.583V252H566.232V243.843H567.921C568.748 242.037 569.293 239.942 569.556 237.559C569.819 235.167 569.951 232.145 569.951 228.494V226.26ZM573.792 229.806C573.792 236.224 573.243 240.903 572.144 243.843H579.732V229.806H573.792Z" fill="white"/>
<path d="M588.286 226.26H592.059V240.326L600.151 226.26H604.169V247.388H600.396V233.596L592.318 247.388H588.286V226.26Z" fill="white"/>
<path d="M608.338 226.26H612.111V240.326L620.202 226.26H624.221V247.388H620.447V233.596L612.37 247.388H608.338V226.26ZM618.69 221H620.556C620.447 222.307 620.011 223.335 619.249 224.084C618.495 224.824 617.514 225.194 616.306 225.194C615.098 225.194 614.113 224.824 613.35 224.084C612.597 223.335 612.165 222.307 612.056 221H613.922C613.986 221.682 614.213 222.201 614.604 222.556C614.994 222.902 615.562 223.075 616.306 223.075C617.051 223.075 617.619 222.902 618.009 222.556C618.4 222.201 618.627 221.682 618.69 221Z" fill="white"/>
<path d="M628.348 247.388V226.26H632.38V234.576H640.281V226.26H644.313V247.388H640.281V238.15H632.38V247.388H628.348Z" fill="white"/>
<path d="M648.604 226.26H652.636V234.706H658.03C659.447 234.706 660.664 234.912 661.681 235.325C662.707 235.729 663.561 236.459 664.242 237.516C664.923 238.563 665.263 239.769 665.263 241.133C665.263 242.565 664.909 243.8 664.201 244.837C663.492 245.865 662.702 246.547 661.831 246.884C660.968 247.22 659.701 247.388 658.03 247.388H648.604V226.26ZM652.636 243.843H656.573C657.826 243.843 658.698 243.78 659.188 243.656C659.687 243.521 660.128 243.223 660.509 242.762C660.9 242.301 661.095 241.739 661.095 241.076C661.095 240.134 660.777 239.428 660.141 238.957C659.515 238.486 658.38 238.251 656.736 238.251H652.636V243.843ZM667.593 226.26H671.625V247.388H667.593V226.26Z" fill="white"/>
<path d="M675.875 226.26H679.648V240.326L687.739 226.26H691.758V247.388H687.985V233.596L679.907 247.388H675.875V226.26ZM686.227 221H688.094C687.985 222.307 687.549 223.335 686.786 224.084C686.032 224.824 685.051 225.194 683.843 225.194C682.636 225.194 681.65 224.824 680.888 224.084C680.134 223.335 679.702 222.307 679.593 221H681.46C681.523 221.682 681.75 222.201 682.141 222.556C682.531 222.902 683.099 223.075 683.843 223.075C684.588 223.075 685.156 222.902 685.546 222.556C685.937 222.201 686.164 221.682 686.227 221Z" fill="white"/>
<path d="M703.691 226.26H719.574V247.388H715.542V229.806H707.723V247.388H703.691V226.26Z" fill="white"/>
<path d="M741.696 247.388H737.309L735.566 242.589H727.583L725.935 247.388H721.658L729.436 226.26H733.699L741.696 247.388ZM734.272 239.029L731.52 231.189L728.823 239.029H734.272Z" fill="white"/>
<path d="M743.848 247.388V226.26H750.318C752.77 226.26 754.368 226.366 755.113 226.577C756.257 226.894 757.215 227.586 757.987 228.653C758.759 229.71 759.145 231.079 759.145 232.76C759.145 234.057 758.923 235.148 758.478 236.032C758.033 236.916 757.465 237.612 756.775 238.121C756.094 238.621 755.399 238.952 754.691 239.116C753.728 239.318 752.334 239.418 750.509 239.418H747.88V247.388H743.848ZM747.88 229.834V235.83H750.087C751.676 235.83 752.738 235.719 753.274 235.498C753.81 235.277 754.228 234.932 754.527 234.461C754.836 233.99 754.99 233.442 754.99 232.818C754.99 232.049 754.777 231.415 754.35 230.915C753.923 230.416 753.383 230.104 752.729 229.979C752.248 229.883 751.281 229.834 749.828 229.834H747.88Z" fill="white"/>
<path d="M762.523 226.26H766.555V235.253C767.454 235.157 768.063 234.912 768.381 234.518C768.699 234.124 769.189 233.029 769.852 231.232C770.687 228.946 771.527 227.524 772.372 226.967C773.207 226.409 774.556 226.131 776.418 226.131C776.508 226.131 776.704 226.126 777.003 226.116V229.272L776.431 229.258C775.605 229.258 775.001 229.369 774.62 229.589C774.238 229.801 773.929 230.128 773.693 230.57C773.457 231.011 773.108 231.919 772.644 233.293C772.399 234.024 772.131 234.634 771.841 235.124C771.559 235.614 771.055 236.075 770.329 236.507C771.228 236.776 771.968 237.319 772.549 238.136C773.139 238.952 773.784 240.105 774.483 241.595L777.208 247.388H772.467L770.083 241.926C770.047 241.849 769.97 241.7 769.852 241.479C769.807 241.402 769.639 241.071 769.348 240.485C768.83 239.447 768.403 238.799 768.067 238.539C767.741 238.28 767.237 238.145 766.555 238.136V247.388H762.523V226.26Z" fill="white"/>
<path d="M787.302 226.26H803.185V247.388H799.153V229.806H791.334V247.388H787.302V226.26Z" fill="white"/>
<path d="M807.298 247.388V226.26H813.769C816.221 226.26 817.819 226.366 818.564 226.577C819.708 226.894 820.666 227.586 821.438 228.653C822.21 229.71 822.596 231.079 822.596 232.76C822.596 234.057 822.373 235.148 821.928 236.032C821.483 236.916 820.916 237.612 820.226 238.121C819.544 238.621 818.85 238.952 818.141 239.116C817.179 239.318 815.785 239.418 813.96 239.418H811.33V247.388H807.298ZM811.33 229.834V235.83H813.537C815.126 235.83 816.189 235.719 816.725 235.498C817.261 235.277 817.678 234.932 817.978 234.461C818.287 233.99 818.441 233.442 818.441 232.818C818.441 232.049 818.228 231.415 817.801 230.915C817.374 230.416 816.834 230.104 816.18 229.979C815.699 229.883 814.731 229.834 813.278 229.834H811.33Z" fill="white"/>
<path d="M824.707 236.954C824.707 234.802 825.011 232.996 825.62 231.535C826.074 230.459 826.691 229.493 827.472 228.638C828.262 227.783 829.125 227.149 830.061 226.736C831.305 226.179 832.74 225.9 834.365 225.9C837.307 225.9 839.659 226.866 841.421 228.797C843.192 230.728 844.077 233.413 844.077 236.853C844.077 240.264 843.201 242.935 841.448 244.866C839.696 246.788 837.353 247.748 834.42 247.748C831.45 247.748 829.089 246.792 827.336 244.881C825.583 242.959 824.707 240.317 824.707 236.954ZM828.862 236.81C828.862 239.202 829.384 241.018 830.428 242.258C831.473 243.487 832.799 244.102 834.406 244.102C836.013 244.102 837.33 243.492 838.356 242.272C839.392 241.042 839.909 239.202 839.909 236.752C839.909 234.331 839.405 232.525 838.397 231.333C837.398 230.142 836.068 229.546 834.406 229.546C832.744 229.546 831.405 230.152 830.387 231.362C829.37 232.563 828.862 234.379 828.862 236.81Z" fill="white"/>
<path d="M859.089 244.924V247.388H855.138V244.924C851.951 244.799 849.699 243.968 848.382 242.43C847.074 240.884 846.42 238.952 846.42 236.637C846.42 234.196 847.106 232.241 848.477 230.771C849.849 229.292 852.069 228.489 855.138 228.364V226.275H859.089V228.364C862.258 228.489 864.501 229.316 865.818 230.843C867.144 232.371 867.807 234.307 867.807 236.651C867.807 238.976 867.148 240.908 865.832 242.445C864.515 243.973 862.267 244.799 859.089 244.924ZM859.089 241.364C860.142 241.364 861.046 241.177 861.799 240.802C862.562 240.427 863.103 239.923 863.42 239.289C863.738 238.655 863.897 237.727 863.897 236.507C863.897 233.452 862.294 231.924 859.089 231.924V241.364ZM855.138 241.364V231.924C853.44 231.924 852.214 232.328 851.46 233.135C850.707 233.932 850.33 235.143 850.33 236.767C850.33 239.832 851.933 241.364 855.138 241.364Z" fill="white"/>
<path d="M870.231 236.954C870.231 234.802 870.536 232.996 871.144 231.535C871.598 230.459 872.216 229.493 872.997 228.638C873.787 227.783 874.649 227.149 875.585 226.736C876.829 226.179 878.264 225.9 879.889 225.9C882.832 225.9 885.184 226.866 886.945 228.797C888.716 230.728 889.602 233.413 889.602 236.853C889.602 240.264 888.725 242.935 886.973 244.866C885.22 246.788 882.877 247.748 879.944 247.748C876.974 247.748 874.613 246.792 872.86 244.881C871.108 242.959 870.231 240.317 870.231 236.954ZM874.386 236.81C874.386 239.202 874.908 241.018 875.953 242.258C876.997 243.487 878.323 244.102 879.93 244.102C881.538 244.102 882.854 243.492 883.881 242.272C884.916 241.042 885.433 239.202 885.433 236.752C885.433 234.331 884.929 232.525 883.921 231.333C882.922 230.142 881.592 229.546 879.93 229.546C878.268 229.546 876.929 230.152 875.912 231.362C874.895 232.563 874.386 234.379 874.386 236.81Z" fill="white"/>
<path d="M892.762 247.388V226.26H899.232C901.684 226.26 903.283 226.366 904.027 226.577C905.171 226.894 906.13 227.586 906.901 228.653C907.673 229.71 908.059 231.079 908.059 232.76C908.059 234.057 907.837 235.148 907.392 236.032C906.947 236.916 906.379 237.612 905.689 238.121C905.008 238.621 904.313 238.952 903.605 239.116C902.642 239.318 901.248 239.418 899.423 239.418H896.794V247.388H892.762ZM896.794 229.834V235.83H899.001C900.59 235.83 901.653 235.719 902.188 235.498C902.724 235.277 903.142 234.932 903.442 234.461C903.75 233.99 903.905 233.442 903.905 232.818C903.905 232.049 903.691 231.415 903.264 230.915C902.838 230.416 902.297 230.104 901.643 229.979C901.162 229.883 900.195 229.834 898.742 229.834H896.794Z" fill="white"/>
<path d="M911.424 226.26H915.197V240.326L923.289 226.26H927.307V247.388H923.534V233.596L915.456 247.388H911.424V226.26Z" fill="white"/>
<path d="M931.421 247.388V226.26H946.228V229.834H935.453V234.518H945.479V238.078H935.453V243.828H946.609V247.388H931.421Z" fill="white"/>
<path d="M950.042 247.388V226.26H954.074V234.576H961.975V226.26H966.007V247.388H961.975V238.15H954.074V247.388H950.042Z" fill="white"/>
<path d="M974.684 247.388V229.834H968.758V226.26H984.628V229.834H978.716V247.388H974.684Z" fill="white"/>
<path d="M1003.48 247.388H999.094L997.351 242.589H989.368L987.72 247.388H983.443L991.221 226.26H995.484L1003.48 247.388ZM996.057 239.029L993.305 231.189L990.608 239.029H996.057Z" fill="white"/>
<path d="M1005.7 226.26H1009.73V243.843H1017.55V226.26H1021.58V243.843H1023.25V252H1019.89V247.388H1005.7V226.26Z" fill="white"/>
<path d="M1026.07 226.26H1029.84V240.326L1037.93 226.26H1041.95V247.388H1038.18V233.596L1030.1 247.388H1026.07V226.26Z" fill="white"/>
<path d="M1046.12 226.26H1049.89V240.326L1057.98 226.26H1062V247.388H1058.23V233.596L1050.15 247.388H1046.12V226.26Z" fill="white"/>
</g>
<defs>
<filter id="filter0_d_1335_12" x="0" y="0" width="1066" height="356.452" filterUnits="userSpaceOnUse" color-interpolation-filters="sRGB">
<feFlood flood-opacity="0" result="BackgroundImageFix"/>
<feColorMatrix in="SourceAlpha" type="matrix" values="0 0 0 0 0 0 0 0 0 0 0 0 0 0 0 0 0 0 127 0" result="hardAlpha"/>
<feOffset dy="4"/>
<feGaussianBlur stdDeviation="2"/>
<feComposite in2="hardAlpha" operator="out"/>
<feColorMatrix type="matrix" values="0 0 0 0 0 0 0 0 0 0 0 0 0 0 0 0 0 0 0.25 0"/>
<feBlend mode="normal" in2="BackgroundImageFix" result="effect1_dropShadow_1335_12"/>
<feBlend mode="normal" in="SourceGraphic" in2="effect1_dropShadow_1335_12" result="shape"/>
</filter>
<linearGradient id="paint0_linear_1335_12" x1="737.5" y1="90" x2="737.5" y2="193" gradientUnits="userSpaceOnUse">
<stop offset="1" stop-color="white"/>
</linearGradient>
<linearGradient id="paint1_linear_1335_12" x1="737.5" y1="90" x2="737.5" y2="193" gradientUnits="userSpaceOnUse">
<stop offset="1" stop-color="white"/>
</linearGradient>
<linearGradient id="paint2_linear_1335_12" x1="737.5" y1="90" x2="737.5" y2="193" gradientUnits="userSpaceOnUse">
<stop offset="1" stop-color="white"/>
</linearGradient>
<linearGradient id="paint3_linear_1335_12" x1="737.5" y1="90" x2="737.5" y2="193" gradientUnits="userSpaceOnUse">
<stop offset="1" stop-color="white"/>
</linearGradient>
<linearGradient id="paint4_linear_1335_12" x1="737.5" y1="90" x2="737.5" y2="193" gradientUnits="userSpaceOnUse">
<stop offset="1" stop-color="white"/>
</linearGradient>
</defs>
</svg>
