<svg viewBox="0 0 140 128" fill="none" xmlns="http://www.w3.org/2000/svg">
    <path d="M130.583 88.1726C130.386 88.1923 130.484 87.936 130.524 87.8374C130.957 86.2995 131.647 84.7222 132.101 83.1449C142.038 48.3451 119.719 12.4806 84.2487 6.19102C51.0657 0.276039 19.1642 22.2206 13.3084 55.3445C6.09213 96.0987 39.9061 131.707 80.9166 126.876C81.2321 126.837 84.6825 126.206 84.6825 126.383C83.322 126.64 81.9419 126.916 80.5814 127.093C37.4218 132.712 1.73476 94.4425 10.6072 51.7561C15.5561 28.037 34.3657 8.95134 57.927 3.48984C85.4317 -2.87862 113.686 9.8583 127.231 34.366C136.32 50.7899 137.503 70.7037 130.563 88.1726H130.583Z" fill="white"/>
    <path fill-rule="evenodd" clip-rule="evenodd" d="M101.324 0C84.111 39.7881 43.1399 63.724 0 59.2484C43.3371 59.2484 80.0099 36.9095 101.324 0Z" fill="white"/>
    <path fill-rule="evenodd" clip-rule="evenodd" d="M139.14 52.1701C119.226 97.2225 72.5173 123.879 23.7188 118.418C71.7484 119.581 116.032 94.4425 139.14 52.1701Z" fill="white"/>
    <path fill-rule="evenodd" clip-rule="evenodd" d="M129.085 17.0154C107.436 67.4308 55.6994 97.6957 1.24219 92.2145C55.8374 92.2145 102.388 63.2903 129.085 17.0154Z" fill="white"/>
</svg>
